<?xml version="1.0" encoding="utf-8"?>
<!-- Generator: Adobe Illustrator 23.0.6, SVG Export Plug-In . SVG Version: 6.00 Build 0)  -->
<svg version="1.1" id="圖層_1" xmlns="http://www.w3.org/2000/svg" xmlns:xlink="http://www.w3.org/1999/xlink" x="0px" y="0px"
	 viewBox="0 0 595.3 841.9" style="enable-background:new 0 0 595.3 841.9;" xml:space="preserve">
<style type="text/css">
	.st0{fill:#631F1F;}
	.st1{clip-path:url(#SVGID_2_);}
	.st2{fill:#FCFCFC;}
	.st3{fill:#070707;}
	.st4{fill:#050505;}
</style>
<rect x="48" y="180.9" class="st0" width="514" height="493"/>
<g>
	<defs>
		<circle id="SVGID_1_" cx="297.6" cy="420.9" r="145.4"/>
	</defs>
	<clipPath id="SVGID_2_">
		<use xlink:href="#SVGID_1_"  style="overflow:visible;"/>
	</clipPath>
	<g class="st1">
		<g>
			<path class="st2" d="M152,570.9c0-98,0-196-0.1-294c0-3.4,0.7-4.1,4.1-4.1c95.3,0.1,190.7,0.1,286,0c3.4,0,4.1,0.7,4.1,4.1
				c-0.1,96.7-0.1,193.3,0,290c0,3.4-0.7,4.1-4.1,4.1C345.3,570.9,248.7,570.9,152,570.9z M203.9,342.4c-0.5,0.6-1.3,1.3-1.8,2
				c-2,2.7-3.7,5.5-5.9,8.1c-2.3,2.7-1.7,4.5,0.8,7c31.3,30.8,62.5,61.6,93.7,92.5c22.6,22.4,45.2,45,67.8,67.4
				c8.1,8,8.2,7.9,17.2,0.4c2-1.7,2.2-2.4,0.2-4.4c-13.5-13.4-26.7-27.1-40.1-40.7c-23.1-23.4-46.3-46.7-69.4-70
				c-20-20.2-39.9-40.4-59.9-60.6C205.8,343.5,205.4,342.4,203.9,342.4z M227,523c0-27.1,0-53.1,0-79.8
				c20.9,20.1,41.2,39.5,61.4,58.9c12.9,12.4,25.9,24.6,38.7,37.1c2.9,2.8,5.7,3.6,9.4,1.9c2.5-1.2,5.4-1.6,7.9-3.4
				c-1.3-1.5-2.5-3.1-3.9-4.4c-24.2-23.9-48.4-47.8-72.5-71.8c-16.9-16.7-33.7-33.5-50.6-50.1c-1-1-1.8-3.1-3.7-2.6
				c-1.4,0.4-0.8,2-0.8,3.1c0,32,0,64,0,95.9c0,1.9,0.1,3.7,1.6,5C218.1,516.2,221.6,519.7,227,523z M394.2,501.4
				c2-2.6,3.7-5.3,5.8-7.6c3.5-3.7,2.1-6.3-1-9.4c-19.9-20-39.7-40.1-59.6-60c-1.8-1.8-2.1-2.9-0.2-4.8c8.6-8.5,17.1-17.2,25.6-25.8
				c11.9-12,23.8-24.1,35.6-36.1c0.9-1,3-1.8,2-3.6c-2.2-4.1-4.5-8.6-8.4-10.9c-1.5-0.9-4.3,3.3-6.3,5.5c-0.9,1-2,1.8-2.9,2.7
				c-22.1,22.3-44.1,44.7-66.3,66.9c-2.8,2.8-2.9,4.5-0.2,7.2c10.8,10.7,21.5,21.6,32.2,32.4c13.3,13.5,26.6,27,39.9,40.4
				C391.6,499.3,392.8,500.1,394.2,501.4z M300.4,406.2c1.2-1.8,2.2-3.8,3.7-5.3c22.7-23.1,45.4-46.1,68.2-69
				c6.3-6.3,6.2-6-0.9-11.5c-4-3.1-7.1-4-10.4,0.6c-1.6,2.3-3.8,4.1-5.8,6.1c-17.9,18.1-35.8,36-53.5,54.2c-2.7,2.8-4.2,1.9-6.3-0.3
				c-18.7-19-37.4-38-56.1-57c-7.8-7.9-7.7-7.8-16.3-0.6c-2.4,2-2.1,2.7-0.1,4.8c24.7,24.8,49.2,49.7,73.8,74.6
				C297.3,403.8,297.9,404.8,300.4,406.2z M345,306.5c-28.7-13.3-67.1-12.3-92.9,0.7c15.1,14.5,29.9,28.6,44.5,42.8
				c1.8,1.8,2.7,1.4,4.3-0.3C315.3,335.4,329.9,321.3,345,306.5z M413.6,466.9c2.5-4.5,3.6-9.2,4.8-13.9c5.9-24.2,5-48.2-2.8-71.9
				c-0.8-2.4-1.3-5.3-4.7-1.8c-13,13.3-26,26.6-39.2,39.7c-2.4,2.4-2.2,3.7,0,5.9c8.4,8.3,16.6,16.7,24.9,25.1
				C402.2,455.6,407.9,461.2,413.6,466.9z M302,546.2c-18-17.1-35-33.5-53-50.6c0,13.6,0.1,25.6-0.1,37.6c0,2.5,1.1,3.4,3.1,4.3
				c8,3.4,16.3,5.8,24.8,7.4C284.6,546.3,292.5,547.7,302,546.2z M189.8,366c-18.1,30.4-17.9,93.8,0,112.1
				C189.8,440.5,189.8,403.3,189.8,366z"/>
			<path class="st3" d="M203.9,342.4c1.5-0.1,1.8,1,2.5,1.7c20,20.2,39.9,40.5,59.9,60.6c23.1,23.4,46.3,46.7,69.4,70
				c13.4,13.5,26.7,27.2,40.1,40.7c2,2,1.8,2.7-0.2,4.4c-9,7.4-9,7.6-17.2-0.4c-22.7-22.4-45.2-45-67.8-67.4
				c-31.2-30.9-62.4-61.7-93.7-92.5c-2.5-2.4-3.1-4.2-0.8-7c2.1-2.6,3.9-5.4,5.9-8.1C202.7,343.7,203.4,343,203.9,342.4z"/>
			<path class="st3" d="M227,523c-5.4-3.2-8.9-6.7-12.6-10c-1.5-1.4-1.6-3.2-1.6-5c0-32,0-64,0-95.9c0-1.1-0.6-2.7,0.8-3.1
				c1.9-0.6,2.7,1.5,3.7,2.6c16.9,16.6,33.7,33.4,50.6,50.1c24.2,23.9,48.4,47.8,72.5,71.8c1.4,1.4,2.6,2.9,3.9,4.4
				c-2.5,1.8-5.4,2.2-7.9,3.4c-3.7,1.7-6.5,0.9-9.4-1.9c-12.8-12.4-25.8-24.7-38.7-37.1c-20.3-19.4-40.5-38.9-61.4-58.9
				C227,469.9,227,495.9,227,523z"/>
			<path class="st3" d="M394.2,501.4c-1.5-1.2-2.7-2.1-3.7-3.1c-13.3-13.5-26.6-27-39.9-40.4c-10.7-10.8-21.4-21.7-32.2-32.4
				c-2.8-2.7-2.6-4.4,0.2-7.2c22.2-22.2,44.2-44.6,66.3-66.9c0.9-0.9,2-1.7,2.9-2.7c1.9-2.2,4.8-6.4,6.3-5.5
				c3.9,2.3,6.2,6.8,8.4,10.9c1,1.8-1.1,2.6-2,3.6c-11.8,12.1-23.7,24.1-35.6,36.1c-8.5,8.6-17,17.2-25.6,25.8
				c-1.9,1.9-1.7,2.9,0.2,4.8c19.9,20,39.7,40.1,59.6,60c3.1,3.1,4.5,5.7,1,9.4C397.9,496.1,396.2,498.7,394.2,501.4z"/>
			<path class="st3" d="M300.4,406.2c-2.5-1.4-3.1-2.4-3.9-3.3c-24.6-24.9-49.1-49.8-73.8-74.6c-2.1-2.1-2.3-2.9,0.1-4.8
				c8.6-7.1,8.5-7.3,16.3,0.6c18.7,19,37.5,37.9,56.1,57c2.1,2.2,3.6,3,6.3,0.3c17.7-18.2,35.7-36.2,53.5-54.2c2-2,4.2-3.9,5.8-6.1
				c3.4-4.6,6.4-3.8,10.4-0.6c7,5.4,7.2,5.1,0.9,11.5c-22.8,23-45.5,46-68.2,69C302.6,402.4,301.6,404.5,300.4,406.2z"/>
			<path class="st4" d="M345,306.5c-15.1,14.8-29.7,29-44.1,43.3c-1.6,1.6-2.5,2-4.3,0.3c-14.6-14.2-29.4-28.3-44.5-42.8
				C277.9,294.2,316.3,293.2,345,306.5z"/>
			<path class="st4" d="M413.6,466.9c-5.8-5.7-11.4-11.3-17-16.9c-8.3-8.3-16.6-16.8-24.9-25.1c-2.2-2.2-2.4-3.6,0-5.9
				c13.2-13.1,26.2-26.4,39.2-39.7c3.3-3.4,3.9-0.6,4.7,1.8c7.9,23.7,8.7,47.7,2.8,71.9C417.2,457.7,416.1,462.4,413.6,466.9z"/>
			<path class="st4" d="M302,546.2c-9.5,1.5-17.3,0.1-25.1-1.3c-8.5-1.6-16.8-4-24.8-7.4c-2-0.9-3.2-1.8-3.1-4.3
				c0.1-12,0.1-24,0.1-37.6C266.9,512.7,284,529.1,302,546.2z"/>
			<path class="st3" d="M189.8,366c0,37.3,0,74.5,0,112.1C171.9,459.8,171.6,396.4,189.8,366z"/>
		</g>
	</g>
</g>
</svg>
